<?xml version="1.0" encoding="UTF-8"?>
<svg width="512" height="512" viewBox="0 0 512 512" fill="none" xmlns="http://www.w3.org/2000/svg">
  <!-- Background circle -->
  <circle cx="256" cy="256" r="240" fill="#4F46E5"/>
  
  <!-- Stylized "S" -->
  <path d="M256 96C194.5 96 144 146.5 144 208C144 269.5 194.5 320 256 320C317.5 320 368 269.5 368 208C368 146.5 317.5 96 256 96ZM256 288C211.8 288 176 252.2 176 208C176 163.8 211.8 128 256 128C300.2 128 336 163.8 336 208C336 252.2 300.2 288 256 288Z" fill="white"/>
  
  <!-- Decorative elements -->
  <circle cx="256" cy="208" r="32" fill="white"/>
  <path d="M256 160C238.3 160 224 174.3 224 192C224 209.7 238.3 224 256 224C273.7 224 288 209.7 288 192C288 174.3 273.7 160 256 160Z" fill="#4F46E5"/>
</svg> 