<?xml version="1.0" encoding="UTF-8"?>
<svg width="32" height="32" viewBox="0 0 32 32" fill="none" xmlns="http://www.w3.org/2000/svg">
  <!-- Background circle -->
  <circle cx="16" cy="16" r="15" fill="#4F46E5"/>
  
  <!-- Stylized "S" -->
  <path d="M16 6C12.7 6 10 8.7 10 12C10 15.3 12.7 18 16 18C19.3 18 22 15.3 22 12C22 8.7 19.3 6 16 6ZM16 16C13.8 16 12 14.2 12 12C12 9.8 13.8 8 16 8C18.2 8 20 9.8 20 12C20 14.2 18.2 16 16 16Z" fill="white"/>
  
  <!-- Decorative elements -->
  <circle cx="16" cy="12" r="2" fill="white"/>
  <path d="M16 10C15.4 10 15 10.4 15 11C15 11.6 15.4 12 16 12C16.6 12 17 11.6 17 11C17 10.4 16.6 10 16 10Z" fill="#4F46E5"/>
</svg> 